<?xml version="1.0" encoding="UTF-8" standalone="no"?>
<!-- Created with Inkscape (http://www.inkscape.org/) -->

<svg
   xmlns:dc="http://purl.org/dc/elements/1.1/"
   xmlns:cc="http://creativecommons.org/ns#"
   xmlns:rdf="http://www.w3.org/1999/02/22-rdf-syntax-ns#"
   xmlns:svg="http://www.w3.org/2000/svg"
   xmlns="http://www.w3.org/2000/svg"
   xmlns:xlink="http://www.w3.org/1999/xlink"
   xmlns:sodipodi="http://sodipodi.sourceforge.net/DTD/sodipodi-0.dtd"
   xmlns:inkscape="http://www.inkscape.org/namespaces/inkscape"
   width="1488.189"
   height="1052.3622"
   id="svg2"
   version="1.1"
   inkscape:version="0.48.2 r9819"
   sodipodi:docname="DerGrosseZusammenhang.svg">
  <defs
     id="defs4" />
  <sodipodi:namedview
     id="base"
     pagecolor="#ffffff"
     bordercolor="#666666"
     borderopacity="1.0"
     inkscape:pageopacity="0.0"
     inkscape:pageshadow="2"
     inkscape:zoom="0.49497475"
     inkscape:cx="922.806"
     inkscape:cy="568.78581"
     inkscape:document-units="px"
     inkscape:current-layer="layer1"
     showgrid="false"
     inkscape:window-width="1024"
     inkscape:window-height="715"
     inkscape:window-x="-3"
     inkscape:window-y="-4"
     inkscape:window-maximized="1" />
  <metadata
     id="metadata7">
    <rdf:RDF>
      <cc:Work
         rdf:about="">
        <dc:format>image/svg+xml</dc:format>
        <dc:type
           rdf:resource="http://purl.org/dc/dcmitype/StillImage" />
        <dc:title />
      </cc:Work>
    </rdf:RDF>
  </metadata>
  <g
     inkscape:label="Ebene 1"
     inkscape:groupmode="layer"
     id="layer1"
     transform="translate(0,2.988066e-5)">
    <a
       id="a2989"
       xlink:href="http://www.zdf.de/ZDFmediathek/hauptnavigation/startseite/#/beitrag/video/1315554/Toll!-Evolution!"
       transform="translate(368.57143,-25.714286)"
       style="fill:#00009b">
      <text
         sodipodi:linespacing="125%"
         id="text2985"
         y="93.797104"
         x="62.720715"
         style="font-size:54.57760619999999818px;font-style:normal;font-variant:normal;font-weight:normal;font-stretch:normal;text-align:start;line-height:125%;letter-spacing:0px;word-spacing:0px;writing-mode:lr-tb;text-anchor:start;fill:#00009b;fill-opacity:1;stroke:none;font-family:Linux Biolinum;-inkscape-font-specification:Linux Biolinum"
         xml:space="preserve"><tspan
           y="93.797104"
           x="62.720715"
           id="tspan2987"
           sodipodi:role="line">Der große Zusammenhang</tspan></text>
    </a>
    <text
       xml:space="preserve"
       style="font-size:20px;font-style:normal;font-variant:normal;font-weight:normal;font-stretch:normal;line-height:125%;letter-spacing:0px;word-spacing:0px;fill:#000000;fill-opacity:1;stroke:none;font-family:Linux Biolinum;-inkscape-font-specification:Linux Biolinum"
       x="1212.697"
       y="148.99866"
       id="text2993"
       sodipodi:linespacing="125%"><tspan
         sodipodi:role="line"
         id="tspan2995"
         x="1212.697"
         y="148.99866">duesenchat</tspan></text>
    <text
       xml:space="preserve"
       style="font-size:20px;font-style:normal;font-variant:normal;font-weight:normal;font-stretch:normal;line-height:125%;letter-spacing:0px;word-spacing:0px;fill:#000000;fill-opacity:1;stroke:none;font-family:Linux Biolinum;-inkscape-font-specification:Linux Biolinum"
       x="1201.3823"
       y="208.6274"
       id="text2997"
       sodipodi:linespacing="125%"><tspan
         sodipodi:role="line"
         id="tspan2999"
         x="1201.3823"
         y="208.6274">daemon</tspan></text>
    <path
       style="color:#000000;fill:none;stroke:#000000;stroke-width:1px;stroke-linecap:butt;stroke-linejoin:miter;stroke-miterlimit:4;stroke-opacity:1;stroke-dasharray:none;stroke-dashoffset:0;marker:none;visibility:visible;display:inline;overflow:visible;enable-background:accumulate"
       d="m 1183.4026,186.37429 c 4.0088,-2.14131 141.3742,-4.13492 142.4315,-2.0203 10.0853,20.17065 -7.0711,56.76465 -7.0711,78.7919 0,7.97879 -3.0564,35.32935 2.0203,40.4061 1.2492,1.24911 6.3201,14.01256 4.0407,15.15229 -14.4977,7.24881 -100.0609,2.0203 -121.2184,2.0203 -4.5379,0 -24.5795,4.7149 -28.2842,1.01015 -0.8019,-0.80188 4.3723,-7.73457 5.0507,-9.09137 3.8663,-7.73254 8.0813,-18.95614 8.0813,-29.29442 0,-29.93102 -9.6162,-74.14748 -5.0508,-96.97465 z"
       id="path3003"
       inkscape:connector-curvature="0" />
    <text
       xml:space="preserve"
       style="font-size:20px;font-style:normal;font-variant:normal;font-weight:normal;font-stretch:normal;line-height:125%;letter-spacing:0px;word-spacing:0px;fill:#000000;fill-opacity:1;stroke:none;font-family:Linux Biolinum;-inkscape-font-specification:Linux Biolinum"
       x="1204.6158"
       y="241.93269"
       id="text3005"
       sodipodi:linespacing="125%"><tspan
         sodipodi:role="line"
         id="tspan3007"
         x="1204.6158"
         y="241.93269"> </tspan></text>
    <flowRoot
       xml:space="preserve"
       id="flowRoot3009"
       style="font-size:20px;font-style:normal;font-variant:normal;font-weight:normal;font-stretch:normal;line-height:125%;letter-spacing:0px;word-spacing:0px;fill:#000000;fill-opacity:1;stroke:none;font-family:Linux Biolinum;-inkscape-font-specification:Linux Biolinum"
       transform="matrix(0.61207938,0,0,0.61207938,874.79008,58.85849)"><flowRegion
         id="flowRegion3011"><rect
           id="rect3013"
           width="187.88837"
           height="140.41119"
           x="524.26917"
           y="261.41275" /></flowRegion><flowPara
         id="flowPara3015">nimmt Nachrichten entgegen und reicht sie an die Empfänger weiter</flowPara></flowRoot>    <text
       xml:space="preserve"
       style="font-size:14.29691982px;font-style:normal;font-variant:normal;font-weight:normal;font-stretch:normal;line-height:125%;letter-spacing:0px;word-spacing:0px;fill:#000000;fill-opacity:1;stroke:none;font-family:Linux Biolinum;-inkscape-font-specification:Linux Biolinum"
       x="1205.0781"
       y="307.65106"
       id="text3017"
       sodipodi:linespacing="125%"><tspan
         sodipodi:role="line"
         id="tspan3019"
         x="1205.0781"
         y="307.65106">localhost:13456</tspan></text>
    <text
       xml:space="preserve"
       style="font-size:20px;font-style:normal;font-variant:normal;font-weight:normal;font-stretch:normal;line-height:125%;letter-spacing:0px;word-spacing:0px;fill:#000000;fill-opacity:1;stroke:none;font-family:Linux Biolinum;-inkscape-font-specification:Linux Biolinum"
       x="1149.0574"
       y="365.17126"
       id="text3021"
       sodipodi:linespacing="125%"><tspan
         sodipodi:role="line"
         id="tspan3023"
         x="1149.0574"
         y="365.17126">Server.php</tspan></text>
    <text
       xml:space="preserve"
       style="font-size:20px;font-style:normal;font-variant:normal;font-weight:normal;font-stretch:normal;line-height:125%;letter-spacing:0px;word-spacing:0px;fill:#000000;fill-opacity:1;stroke:none;font-family:Linux Biolinum;-inkscape-font-specification:Linux Biolinum"
       x="1151.0778"
       y="418.70938"
       id="text3025"
       sodipodi:linespacing="125%"><tspan
         sodipodi:role="line"
         id="tspan3027"
         x="1151.0778"
         y="418.70938">duesenchat.php</tspan></text>
    <text
       xml:space="preserve"
       style="font-size:13.52490616px;font-style:normal;font-variant:normal;font-weight:normal;font-stretch:normal;line-height:125%;letter-spacing:0px;word-spacing:0px;fill:#000000;fill-opacity:1;stroke:none;font-family:Linux Biolinum;-inkscape-font-specification:Linux Biolinum"
       x="1144.4808"
       y="383.88361"
       id="text3029"
       sodipodi:linespacing="125%"><tspan
         sodipodi:role="line"
         id="tspan3031"
         x="1144.4808"
         y="383.88361">macht die Verbindung zum daemon</tspan></text>
    <path
       style="color:#000000;fill:none;stroke:#000000;stroke-width:1px;stroke-linecap:butt;stroke-linejoin:miter;stroke-miterlimit:4;stroke-opacity:1;stroke-dasharray:none;stroke-dashoffset:0;marker:none;visibility:visible;display:inline;overflow:visible;enable-background:accumulate"
       d="m 1349.0676,400.52663 c -27.1394,-1.08844 -56.2867,1.01015 -81.8223,1.01015 -19.6582,0 -33.3551,-5.05076 -51.5178,-5.05076 -28.2843,0 -56.5686,0 -84.8528,0 -1.9785,0 -8.6291,2.48266 -10.1016,1.01015 -1.4689,-1.46889 4.3362,-9.68244 5.0508,-11.11167 2.0639,-4.1277 1.0102,-12.36913 1.0102,-17.1726 0,-4.34795 -2.7669,-24.50723 0,-27.27412 10.0225,-10.02251 117.9843,1.01016 141.4213,1.01016 9.0374,0 81.8224,2.97486 81.8224,5.05076 0,14.40511 -1.0102,37.06427 -1.0102,52.52793 z"
       id="path3037"
       inkscape:connector-curvature="0" />
    <path
       style="color:#000000;fill:none;stroke:#000000;stroke-width:1px;stroke-linecap:butt;stroke-linejoin:miter;stroke-miterlimit:4;stroke-opacity:1;stroke-dasharray:none;stroke-dashoffset:0;marker:none;visibility:visible;display:inline;overflow:visible;enable-background:accumulate"
       d="m 1120.7731,397.49617 c 7.623,17.43506 7.0711,42.91508 7.0711,62.62946 2.8496,11.40441 -4.4327,40.64803 2.1558,47.23655 4.4771,4.4771 20.6522,-6.49066 25.7143,-1.42857 4.7359,4.73589 141.2063,5.71428 160,5.71428 5.5316,0 34.3576,3.49956 37.1428,0.71429 0.6174,-0.61733 -2.1428,-55.05286 -2.1428,-60.71429"
       id="path3039"
       inkscape:connector-curvature="0" />
    <path
       style="color:#000000;fill:none;stroke:#000000;stroke-width:1px;stroke-linecap:butt;stroke-linejoin:miter;stroke-miterlimit:4;stroke-opacity:1;stroke-dasharray:none;stroke-dashoffset:0;marker:none;visibility:visible;display:inline;overflow:visible;enable-background:accumulate"
       d="m 1348.0575,399.51648 c 0.9244,5.31195 6.4531,34.79646 2.0203,52.52793"
       id="path3041"
       inkscape:connector-curvature="0" />
    <text
       xml:space="preserve"
       style="font-size:12.43783474px;font-style:normal;font-variant:normal;font-weight:normal;font-stretch:normal;line-height:125%;letter-spacing:0px;word-spacing:0px;fill:#000000;fill-opacity:1;stroke:none;font-family:Linux Biolinum;-inkscape-font-specification:Linux Biolinum"
       x="1136.4792"
       y="435.6525"
       id="text3051"
       sodipodi:linespacing="125%"><tspan
         sodipodi:role="line"
         id="tspan3053"
         x="1136.4792"
         y="435.6525">macht das HTTP-Interface, crypto hier?</tspan></text>
    <path
       style="color:#000000;fill:none;stroke:#000000;stroke-width:1px;stroke-linecap:butt;stroke-linejoin:miter;stroke-miterlimit:4;stroke-opacity:1;stroke-dasharray:none;stroke-dashoffset:0;marker:none;visibility:visible;display:inline;overflow:visible;enable-background:accumulate"
       d="m 1240,361.64789 c 52.9694,-10.66844 14.2857,-22.0743 14.2857,-49.28571"
       id="path3055"
       inkscape:connector-curvature="0" />
    <text
       xml:space="preserve"
       style="font-size:20px;font-style:normal;font-variant:normal;font-weight:normal;font-stretch:normal;line-height:125%;letter-spacing:0px;word-spacing:0px;fill:#000000;fill-opacity:1;stroke:none;font-family:Linux Biolinum;-inkscape-font-specification:Linux Biolinum"
       x="893.75342"
       y="143.79076"
       id="text3057"
       sodipodi:linespacing="125%"><tspan
         sodipodi:role="line"
         id="tspan3059"
         x="893.75342"
         y="143.79076">Userverwaltung</tspan></text>
    <text
       xml:space="preserve"
       style="font-size:20px;font-style:normal;font-variant:normal;font-weight:normal;font-stretch:normal;line-height:125%;letter-spacing:0px;word-spacing:0px;fill:#000000;fill-opacity:1;stroke:none;font-family:Linux Biolinum;-inkscape-font-specification:Linux Biolinum"
       x="1001.5896"
       y="195.88284"
       id="text3061"
       sodipodi:linespacing="125%"><tspan
         sodipodi:role="line"
         id="tspan3063"
         x="1001.5896"
         y="195.88284">Pubkeys</tspan></text>
    <a
       id="a3211"
       xlink:href="http://de.wikipedia.org/wiki/Alice_und_Bob"
       style="fill:#00008d">
      <text
         sodipodi:linespacing="125%"
         id="text3065"
         y="238.8167"
         x="1008.7015"
         style="font-size:18.33530998000000167px;font-style:normal;font-variant:normal;font-weight:normal;font-stretch:normal;line-height:125%;letter-spacing:0px;word-spacing:0px;fill:#00008d;fill-opacity:1;stroke:none;font-family:Linux Biolinum;-inkscape-font-specification:Linux Biolinum"
         xml:space="preserve"><tspan
           y="238.8167"
           x="1008.7015"
           id="tspan3067"
           sodipodi:role="line">Bob</tspan><tspan
           id="tspan3069"
           y="261.73584"
           x="1008.7015"
           sodipodi:role="line" /><tspan
           id="tspan3071"
           y="284.65497"
           x="1008.7015"
           sodipodi:role="line">Alice</tspan><tspan
           id="tspan3073"
           y="307.5741"
           x="1008.7015"
           sodipodi:role="line" /><tspan
           id="tspan3079"
           y="330.49326"
           x="1008.7015"
           sodipodi:role="line" /></text>
    </a>
    <path
       style="color:#000000;fill:none;stroke:#000000;stroke-width:1px;stroke-linecap:butt;stroke-linejoin:miter;stroke-miterlimit:4;stroke-opacity:1;stroke-dasharray:none;stroke-dashoffset:0;marker:none;visibility:visible;display:inline;overflow:visible;enable-background:accumulate"
       d="m 1070.2655,216.67887 c -10.4568,1.64083 -22.2367,1.01015 -33.335,1.01015 -6.793,0 -14.8038,3.03046 -20.2031,3.03046 -3.2205,0 -18.15358,-2.04945 -20.20303,0 -4.51751,4.51751 -1.33372,28.62757 4.04063,31.31473 0.2534,0.12673 72.6345,0.0482 72.731,0 6.7552,-3.37761 -1.2379,-33.11454 -3.0305,-35.35534 z"
       id="path3081"
       inkscape:connector-curvature="0" />
    <path
       style="color:#000000;fill:none;stroke:#000000;stroke-width:1px;stroke-linecap:butt;stroke-linejoin:miter;stroke-miterlimit:4;stroke-opacity:1;stroke-dasharray:none;stroke-dashoffset:0;marker:none;visibility:visible;display:inline;overflow:visible;enable-background:accumulate"
       d="m 1073.296,266.17635 c 1.3052,-3.047 -20.0926,5.61106 -29.2945,1.01015 -5.8964,-2.94825 -35.808,-6.84469 -43.4365,-3.03046 -8.20814,4.10406 -2.346,29.9789 2.0203,34.34519 2.0174,2.0174 97.9865,13.13479 70.7107,-32.32488 z"
       id="path3083"
       inkscape:connector-curvature="0" />
    <path
       style="color:#000000;fill:none;stroke:#000000;stroke-width:1px;stroke-linecap:butt;stroke-linejoin:miter;stroke-miterlimit:4;stroke-opacity:1;stroke-dasharray:none;stroke-dashoffset:0;marker:none;visibility:visible;display:inline;overflow:visible;enable-background:accumulate"
       d="m 1067.2351,314.66367 c -1.1803,3.89917 -14.2224,1.01015 -26.264,1.01015 -25.5548,0 -45.45688,-11.53068 -45.45688,19.1929 0,2.8042 1.57388,12.90877 4.04061,14.14214 13.26467,6.63234 44.09267,-1.01016 58.58887,-1.01016 2.0927,0 11.8002,1.33175 13.132,0 4.8231,-4.82311 -1.6067,-29.27845 -4.0406,-33.33503 z"
       id="path3085"
       inkscape:connector-curvature="0" />
    <path
       style="color:#000000;fill:none;stroke:#000000;stroke-width:1px;stroke-linecap:butt;stroke-linejoin:miter;stroke-miterlimit:4;stroke-opacity:1;stroke-dasharray:none;stroke-dashoffset:0;marker:none;visibility:visible;display:inline;overflow:visible;enable-background:accumulate"
       d="m 1070.2655,361.13069 c 0.2214,0 -13.9118,0 -24.2437,0 -6.9486,0 -11.5987,-2.02031 -19.1928,-2.02031 -25.7874,0 -29.29448,-6.97153 -29.29448,19.1929 0,4.05667 -0.43517,9.37886 3.03048,11.11168 12.1831,6.09155 41.4261,-1.01016 53.5381,-1.01016 0.9104,0 13.2866,2.87577 14.1421,2.02031 3.8726,-3.87255 -0.1392,-23.89571 2.0203,-29.29442 z"
       id="path3087"
       inkscape:connector-curvature="0" />
    <path
       style="color:#000000;fill:none;stroke:#000000;stroke-width:1px;stroke-linecap:butt;stroke-linejoin:miter;stroke-miterlimit:4;stroke-opacity:1;stroke-dasharray:none;stroke-dashoffset:0;marker:none;visibility:visible;display:inline;overflow:visible;enable-background:accumulate"
       d="m 1084.4076,175.26262 c -19.6689,9.90806 -97.70681,-10.37947 -111.11674,3.03045 -4.67608,4.67609 2.84375,119.83473 7.07107,128.28938 7.92281,15.84563 -5.05076,46.14133 -5.05076,63.63961 0,4.35294 -0.13452,36.23097 3.03045,39.39595 2.25445,2.25444 18.68068,0 22.22338,0 21.2309,0 38.8559,-2.02031 59.599,-2.02031 7.9715,0 16.7084,-1.01015 25.2538,-1.01015 1.4899,0 7.0711,2.4262 7.0711,0 0,-49.99789 -1.0102,-101.99659 -1.0102,-150.51273 0,-20.69906 3.496,-63.20042 -7.0711,-80.8122 z"
       id="path3089"
       inkscape:connector-curvature="0" />
    <text
       xml:space="preserve"
       style="font-size:15.56857777px;font-style:normal;font-variant:normal;font-weight:normal;font-stretch:normal;line-height:125%;letter-spacing:0px;word-spacing:0px;fill:#000000;fill-opacity:1;stroke:none;font-family:Linux Biolinum;-inkscape-font-specification:Linux Biolinum"
       x="1277.5675"
       y="464.10248"
       id="text3091"
       sodipodi:linespacing="125%"><tspan
         sodipodi:role="line"
         id="tspan3093"
         x="1277.5675"
         y="464.10248">Privkey</tspan><tspan
         sodipodi:role="line"
         x="1277.5675"
         y="483.5632"
         id="tspan3095">Server</tspan></text>
    <path
       style="color:#000000;fill:none;stroke:#000000;stroke-width:1px;stroke-linecap:butt;stroke-linejoin:miter;stroke-miterlimit:4;stroke-opacity:1;stroke-dasharray:none;stroke-dashoffset:0;marker:none;visibility:visible;display:inline;overflow:visible;enable-background:accumulate"
       d="m 1334.9255,450.02411 c 1.904,1.18994 -13.0289,-1.01016 -21.2132,-1.01016 -15.3026,0 -30.5635,-5.05076 -47.4772,-5.05076 -6.8679,0 6.8729,51.31965 8.0812,52.52793 2.689,2.68897 44.1586,7.35922 48.4873,3.03046 12.1621,-12.16202 2.4005,-33.29521 12.1219,-49.49747 z"
       id="path3097"
       inkscape:connector-curvature="0" />
    <text
       xml:space="preserve"
       style="font-size:11.48366928px;font-style:normal;font-variant:normal;font-weight:normal;font-stretch:normal;line-height:125%;letter-spacing:0px;word-spacing:0px;fill:#000000;fill-opacity:1;stroke:none;font-family:Linux Biolinum;-inkscape-font-specification:Linux Biolinum"
       x="1273.3625"
       y="582.68445"
       id="text3031"
       sodipodi:linespacing="125%"
       transform="scale(1.0004094,0.99959076)"><tspan
         sodipodi:role="line"
         id="tspan3033"
         x="1273.3625"
         y="582.68445">rsa&lt;pubkey server&gt;</tspan><tspan
         sodipodi:role="line"
         x="1273.3625"
         y="597.03906"
         id="tspan3037">To: &lt;Empfänger&gt;</tspan><tspan
         sodipodi:role="line"
         x="1273.3625"
         y="611.39362"
         id="tspan3041">aes&lt;keyindex&gt;</tspan><tspan
         sodipodi:role="line"
         x="1273.3625"
         y="625.74823"
         id="tspan3043">From: &lt;Absender&gt;</tspan><tspan
         sodipodi:role="line"
         x="1273.3625"
         y="640.10278"
         id="tspan3045">[Signatur: sha/rsa]</tspan><tspan
         sodipodi:role="line"
         x="1273.3625"
         y="654.4574"
         id="tspan3047">&lt;nachricht&gt;</tspan></text>
    <path
       style="color:#000000;fill:none;stroke:#000000;stroke-width:1px;stroke-linecap:butt;stroke-linejoin:miter;stroke-miterlimit:4;stroke-opacity:1;stroke-dasharray:none;stroke-dashoffset:0;marker:none;visibility:visible;display:inline;overflow:visible;enable-background:accumulate"
       d="m 1364.1496,573.42677 c -18.723,-5.70022 -54.4934,-2.45978 -80.4186,-2.45978 -1.6488,0 -29.5415,2.16483 -29.5415,1.22989 0,-0.0704 1.2309,8.77375 1.2309,17.21846 0,13.05952 1.2309,25.55985 1.2309,38.12657 0,6.45454 -5.2381,29.61307 -0.8206,34.02695 2.8295,2.82718 42.3028,-0.81993 47.5947,-0.81993 7.4447,0 24.4496,-3.36378 31.1827,0 5.0553,2.52557 16.8792,3.68968 22.5665,3.68968 1.8881,0 11.7829,3.51089 13.1295,0.81992 0.7082,-1.41516 2.2868,-54.05493 2.0515,-54.5251 -2.8315,-5.65837 -5.1417,-17.79442 -2.8721,-24.5978 -0.7565,-12.87795 5.7074,-16.64954 -5.3339,-12.70886 z"
       id="path3049"
       inkscape:connector-curvature="0"
       sodipodi:nodetypes="csssssssssscc" />
    <path
       style="color:#000000;fill:none;stroke:#000000;stroke-width:1px;stroke-linecap:butt;stroke-linejoin:miter;stroke-miterlimit:4;stroke-opacity:1;stroke-dasharray:none;stroke-dashoffset:0;marker:none;visibility:visible;display:inline;overflow:visible;enable-background:accumulate"
       d="m 1368.7831,587.90409 c -11.4955,-3.03189 -91.6637,-0.58542 -92.4374,-1.3585 -0.3526,-0.35228 -15.1811,-0.82002 -15.5914,0 -0.3598,0.71909 -2.1021,33.51594 -0.8206,36.07676 3.5042,7.00268 -2.4618,31.2611 -2.4618,39.35647"
       id="path3051"
       inkscape:connector-curvature="0"
       sodipodi:nodetypes="csssc" />
    <path
       style="color:#000000;fill:none;stroke:#000000;stroke-width:1px;stroke-linecap:butt;stroke-linejoin:miter;stroke-miterlimit:4;stroke-opacity:1;stroke-dasharray:none;stroke-dashoffset:0;marker:none;visibility:visible;display:inline;overflow:visible;enable-background:accumulate"
       d="m 1371.9453,614.42309 c -1.7634,-2.76425 -43.0359,5.78498 -47.1844,1.63985 -4.3575,-4.35396 -54.4093,-3.03001 -58.2624,0.81993 -0.9599,0.95905 0.8723,4.61298 1.2309,5.32952 3.9869,7.96741 2.4726,34.80371 0.4103,43.04614"
       id="path3053"
       inkscape:connector-curvature="0" />
    <text
       xml:space="preserve"
       style="font-size:29.55548096px;font-style:normal;font-variant:normal;font-weight:normal;font-stretch:normal;line-height:125%;letter-spacing:0px;word-spacing:0px;fill:#000000;fill-opacity:1;stroke:none;font-family:Linux Biolinum;-inkscape-font-specification:Linux Biolinum"
       x="1184.7206"
       y="841.76038"
       id="text3055"
       sodipodi:linespacing="125%"><tspan
         sodipodi:role="line"
         id="tspan3057"
         x="1184.7206"
         y="841.76038">jet (Java-Client)</tspan></text>
    <text
       xml:space="preserve"
       style="font-size:31.42219734px;font-style:normal;font-variant:normal;font-weight:normal;font-stretch:normal;line-height:125%;letter-spacing:0px;word-spacing:0px;fill:#000000;fill-opacity:1;stroke:none;font-family:Linux Biolinum;-inkscape-font-specification:Linux Biolinum"
       x="913.98193"
       y="842.46484"
       id="text3059"
       sodipodi:linespacing="125%"><tspan
         sodipodi:role="line"
         id="tspan3061"
         x="913.98193"
         y="842.46484">JavaScript-Client</tspan></text>
    <text
       xml:space="preserve"
       style="font-size:9.41023731px;font-style:normal;font-variant:normal;font-weight:normal;font-stretch:normal;line-height:125%;letter-spacing:0px;word-spacing:0px;fill:#000000;fill-opacity:1;stroke:none;font-family:Linux Biolinum;-inkscape-font-specification:Linux Biolinum"
       x="1114.4663"
       y="586.40283"
       id="text3063"
       sodipodi:linespacing="125%"
       transform="scale(1.0016724,0.9983304)"><tspan
         sodipodi:role="line"
         id="tspan3065"
         x="1114.4663"
         y="586.40283">&lt;crypto-typ&gt;[&lt;parameter&gt;]</tspan><tspan
         sodipodi:role="line"
         x="1114.4663"
         y="598.16565"
         id="tspan3068">&lt;Feld&gt;: &lt;wert&gt;</tspan><tspan
         sodipodi:role="line"
         x="1114.4663"
         y="609.92841"
         id="tspan3082">&lt;Feld2&gt;: &lt;wert2&gt;</tspan><tspan
         sodipodi:role="line"
         x="1114.4663"
         y="621.69122"
         id="tspan3070" /><tspan
         sodipodi:role="line"
         x="1114.4663"
         y="633.45404"
         id="tspan3072">&lt;daten&gt;</tspan></text>
    <path
       style="color:#000000;fill:none;stroke:#000000;stroke-width:1px;stroke-linecap:butt;stroke-linejoin:miter;stroke-miterlimit:4;stroke-opacity:1;stroke-dasharray:none;stroke-dashoffset:0;marker:none;visibility:visible;display:inline;overflow:visible;enable-background:accumulate"
       d="m 1223.925,573.61368 c -25.3885,-1.24966 -66.9467,-1.73956 -98.5493,-1.73956 -2.9981,0 -18.1198,-4.02417 -20.4716,-1.15971 -0.8639,1.05221 0.9522,24.29786 0.9522,28.4128 0,7.37048 -3.9235,34.07148 -0.9522,37.69045 3.4808,4.23954 77.232,2.89927 89.5037,2.89927 3.7992,0 36.6585,-0.79275 36.6585,-1.15971 0,-0.92617 -3.3109,-3.42621 -3.8087,-4.63882 -2.1223,-5.16971 -3.768,-57.65317 -3.3326,-60.30472 z"
       id="path3074"
       inkscape:connector-curvature="0" />
    <path
       style="color:#000000;fill:none;stroke:#000000;stroke-width:1px;stroke-linecap:butt;stroke-linejoin:miter;stroke-miterlimit:4;stroke-opacity:1;stroke-dasharray:none;stroke-dashoffset:0;marker:none;visibility:visible;display:inline;overflow:visible;enable-background:accumulate"
       d="m 1223.4489,589.21972 c -7.0654,4.62852 -72.0663,-2.2246 -84.2668,-0.4745 -5.6983,0.81739 -16.3389,0.4745 -21.4237,0.4745 -2.861,0 -10.9544,-2.84697 -8.0935,-2.84697 1.145,0 1.7843,50.06332 1.1902,52.43172"
       id="path3076"
       inkscape:connector-curvature="0"
       sodipodi:nodetypes="csssc" />
    <text
       xml:space="preserve"
       style="font-size:9.41023731px;font-style:normal;font-variant:normal;font-weight:normal;font-stretch:normal;line-height:125%;letter-spacing:0px;word-spacing:0px;fill:#000000;fill-opacity:1;stroke:none;font-family:Linux Biolinum;-inkscape-font-specification:Linux Biolinum"
       x="693.48486"
       y="1138.3885"
       id="text3078"
       sodipodi:linespacing="125%"
       transform="matrix(0.86747374,-0.5008362,0.4991652,0.86457949,0,0)"><tspan
         sodipodi:role="line"
         id="tspan3080"
         x="693.48486"
         y="1138.3885">(verschlüsselt)</tspan></text>
    <text
       xml:space="preserve"
       style="font-size:15.90475082px;font-style:normal;font-variant:normal;font-weight:normal;font-stretch:normal;line-height:125%;letter-spacing:0px;word-spacing:0px;fill:#000000;fill-opacity:1;stroke:none;font-family:Linux Biolinum;-inkscape-font-specification:Linux Biolinum"
       x="1104.6963"
       y="560.55719"
       id="text3084"
       sodipodi:linespacing="125%"><tspan
         sodipodi:role="line"
         id="tspan3086"
         x="1104.6963"
         y="560.55719">Nachricht:</tspan></text>
    <text
       xml:space="preserve"
       style="font-size:13.88884735px;font-style:normal;font-variant:normal;font-weight:normal;font-stretch:normal;line-height:125%;letter-spacing:0px;word-spacing:0px;fill:#000000;fill-opacity:1;stroke:none;font-family:Linux Biolinum;-inkscape-font-specification:Linux Biolinum"
       x="1249.3782"
       y="555.95227"
       id="text3088"
       sodipodi:linespacing="125%"><tspan
         sodipodi:role="line"
         id="tspan3090"
         x="1249.3782"
         y="555.95227">Typ. Chatnachricht:</tspan></text>
    <path
       style="color:#000000;fill:none;stroke:#000000;stroke-width:1px;stroke-linecap:butt;stroke-linejoin:miter;stroke-miterlimit:4;stroke-opacity:1;stroke-dasharray:none;stroke-dashoffset:0;marker:none;visibility:visible;display:inline;overflow:visible;enable-background:accumulate"
       d="m 1226.3341,627.05334 c -38.0101,2.74761 -76.6887,-2.73881 -115.1574,-2.27284"
       id="path3094"
       inkscape:connector-curvature="0"
       sodipodi:nodetypes="cc" />
    <path
       style="color:#000000;fill:none;stroke:#000000;stroke-width:1px;stroke-linecap:butt;stroke-linejoin:miter;stroke-miterlimit:4;stroke-opacity:1;stroke-dasharray:none;stroke-dashoffset:0;marker:none;visibility:visible;display:inline;overflow:visible;enable-background:accumulate"
       d="m 1260.3571,599.86218 c 4.4461,-1.86898 19.9007,0 28.0123,0 17.4799,0 35.3217,1.78572 51.8745,1.78572 6.637,0 13.2664,0.35714 20.0581,0.35714 2.9026,0 11.5484,1.07143 8.6458,1.07143 -0.8779,0 -1.5691,-0.85154 -2.4208,-1.07143"
       id="path3096"
       inkscape:connector-curvature="0" />
    <path
       style="color:#000000;fill:none;stroke:#000000;stroke-width:1px;stroke-linecap:butt;stroke-linejoin:miter;stroke-miterlimit:4;stroke-opacity:1;stroke-dasharray:none;stroke-dashoffset:0;marker:none;visibility:visible;display:inline;overflow:visible;enable-background:accumulate"
       d="m 1370.8929,645.93361 c -23.6565,-0.10641 -44.3513,-1.60714 -67.6786,-1.60714 -3.5854,0 -15.9963,-1.46615 -18.5714,-0.17858 -1.7163,0.85814 -12.2697,1.07143 -13.5715,1.07143"
       id="path3100"
       inkscape:connector-curvature="0" />
    <text
       xml:space="preserve"
       style="font-size:10.33375359px;font-style:normal;font-variant:normal;font-weight:normal;font-stretch:normal;line-height:125%;letter-spacing:0px;word-spacing:0px;fill:#000000;fill-opacity:1;stroke:none;font-family:Linux Biolinum;-inkscape-font-specification:Linux Biolinum"
       x="1261.985"
       y="704.2204"
       id="text3102"
       sodipodi:linespacing="125%"
       transform="scale(0.99997271,1.0000273)"><tspan
         sodipodi:role="line"
         id="tspan3104"
         x="1261.985"
         y="704.2204">rsa&lt;pubkey server&gt;</tspan><tspan
         sodipodi:role="line"
         x="1261.985"
         y="717.13757"
         id="tspan3106">To: &lt;Empfänger&gt;</tspan><tspan
         sodipodi:role="line"
         x="1261.985"
         y="730.05481"
         id="tspan3108">rsa&lt;pubkey Empf.&gt;</tspan><tspan
         sodipodi:role="line"
         x="1261.985"
         y="742.97198"
         id="tspan3112">From: &lt;Absender&gt;</tspan><tspan
         sodipodi:role="line"
         x="1261.985"
         y="755.88916"
         id="tspan3114">Signatur: sha/rsa</tspan><tspan
         sodipodi:role="line"
         x="1261.985"
         y="768.80634"
         id="tspan3116">Key-Index: &lt;nr&gt;</tspan><tspan
         sodipodi:role="line"
         x="1261.985"
         y="781.72357"
         id="tspan3118">Key: &lt;aes-key&gt;</tspan><tspan
         sodipodi:role="line"
         x="1261.985"
         y="794.64075"
         id="tspan3110" /></text>
    <path
       style="color:#000000;fill:none;stroke:#000000;stroke-width:1px;stroke-linecap:butt;stroke-linejoin:miter;stroke-miterlimit:4;stroke-opacity:1;stroke-dasharray:none;stroke-dashoffset:0;marker:none;visibility:visible;display:inline;overflow:visible;enable-background:accumulate"
       d="m 1344.1528,694.06161 c -10.4203,-0.40703 -18.8895,0 -29.2275,0 -6.9471,0 -57.2609,1.4157 -58.4549,2.60974 -1.5355,1.53556 0,12.72346 0,15.13648 0,8.61511 -7.4679,73.5141 0,77.24824 5.709,2.85467 60.1609,-1.04389 70.981,-1.04389 2.6464,0 15.9399,0.17633 17.1338,-1.01767 3.5558,-29.50374 5.6611,-60.58826 -0.4324,-92.9329 z"
       id="path3120"
       inkscape:connector-curvature="0"
       sodipodi:nodetypes="cssssscc" />
    <path
       style="color:#000000;fill:none;stroke:#000000;stroke-width:1px;stroke-linecap:butt;stroke-linejoin:miter;stroke-miterlimit:4;stroke-opacity:1;stroke-dasharray:none;stroke-dashoffset:0;marker:none;visibility:visible;display:inline;overflow:visible;enable-background:accumulate"
       d="m 1346.52,707.63225 c -13.9116,-1.04027 -45.0591,1.04389 -66.0413,1.04389 -10.9242,0 -20.928,0 -20.8768,0 -1.2906,10.53332 -2.6566,20.92124 -2.6096,30.79491 0,13.34067 1.5021,38.35699 -1.0438,48.54113"
       id="path3122"
       inkscape:connector-curvature="0"
       sodipodi:nodetypes="csccc" />
    <path
       style="color:#000000;fill:none;stroke:#000000;stroke-width:1px;stroke-linecap:butt;stroke-linejoin:miter;stroke-miterlimit:4;stroke-opacity:1;stroke-dasharray:none;stroke-dashoffset:0;marker:none;visibility:visible;display:inline;overflow:visible;enable-background:accumulate"
       d="m 1347.2843,719.63704 c -13.8727,0.18623 -38.1394,1.56584 -52.7138,1.56584 -11.709,0 -26.5399,-1.32434 -36.4691,-0.78292"
       id="path3124"
       inkscape:connector-curvature="0"
       sodipodi:nodetypes="csc" />
    <path
       style="color:#000000;fill:none;stroke:#000000;stroke-width:1px;stroke-linecap:butt;stroke-linejoin:miter;stroke-miterlimit:4;stroke-opacity:1;stroke-dasharray:none;stroke-dashoffset:0;marker:none;visibility:visible;display:inline;overflow:visible;enable-background:accumulate"
       d="m 1348.3282,733.72963 c -17.0068,2.08199 -49.4442,-0.52195 -74.1125,-0.52195 -1.3536,0 -13.0019,-2.17998 -14.0919,0 -0.3588,0.71766 -0.4086,5.18504 0,6.0024 1.3166,2.63323 1.0439,5.38438 1.0439,7.56824 0,9.27081 0.9695,39.44344 0,43.32165"
       id="path3126"
       inkscape:connector-curvature="0"
       sodipodi:nodetypes="cssssc" />
    <text
       xml:space="preserve"
       style="font-size:13.89522362px;font-style:normal;font-variant:normal;font-weight:normal;font-stretch:normal;line-height:125%;letter-spacing:0px;word-spacing:0px;fill:#000000;fill-opacity:1;stroke:none;font-family:Linux Biolinum;-inkscape-font-specification:Linux Biolinum"
       x="1258.4325"
       y="687.38531"
       id="text3128"
       sodipodi:linespacing="125%"><tspan
         sodipodi:role="line"
         id="tspan3130"
         x="1258.4325"
         y="687.38531">Key-Exchange:</tspan></text>
    <flowRoot
       xml:space="preserve"
       id="flowRoot3132"
       style="font-size:20px;font-style:normal;font-variant:normal;font-weight:normal;font-stretch:normal;line-height:125%;letter-spacing:0px;word-spacing:0px;fill:#000000;fill-opacity:1;stroke:none;font-family:Linux Biolinum;-inkscape-font-specification:Linux Biolinum"
       transform="matrix(0.27188106,0,0,0.27188106,1166.524,490.72591)"><flowRegion
         id="flowRegion3134"><rect
           id="rect3136"
           width="187.14284"
           height="131.42857"
           x="675.71429"
           y="717.36218" /></flowRegion><flowPara
         id="flowPara3138">rsa ist vor allem zum Entschlüsseln sehr langsam, deswegen auf sicherem Weg  AES-Keys verteilen</flowPara></flowRoot>    <text
       xml:space="preserve"
       style="font-size:20px;font-style:normal;font-variant:normal;font-weight:normal;font-stretch:normal;line-height:125%;letter-spacing:0px;word-spacing:0px;fill:#000000;fill-opacity:1;stroke:none;font-family:Linux Biolinum;-inkscape-font-specification:Linux Biolinum"
       x="1137.3293"
       y="912.74579"
       id="text3140"
       sodipodi:linespacing="125%"><tspan
         sodipodi:role="line"
         id="tspan3142"
         x="1137.3293"
         y="912.74579">pubkey </tspan><tspan
         sodipodi:role="line"
         x="1137.3293"
         y="937.74579"
         id="tspan3144">Server</tspan></text>
    <path
       style="color:#000000;fill:none;stroke:#000000;stroke-width:1px;stroke-linecap:butt;stroke-linejoin:miter;stroke-miterlimit:4;stroke-opacity:1;stroke-dasharray:none;stroke-dashoffset:0;marker:none;visibility:visible;display:inline;overflow:visible;enable-background:accumulate"
       d="m 1201.9791,889.51226 c -19.1236,1.81946 -42.9351,-6.81852 -82.281,4.45902 2.5348,5.06963 -3.4392,10.90701 -0.6635,16.45832 5.8876,11.77532 -5.1598,28.13809 0.112,38.68166 1.5661,3.13213 85.7027,1.27835 85.863,1.01015 3.0939,-5.17569 0.1595,-36.39881 -3.0305,-60.60915 z"
       id="path3146"
       inkscape:connector-curvature="0"
       sodipodi:nodetypes="ccsssc" />
    <text
       xml:space="preserve"
       style="font-size:8.08444214px;font-style:normal;font-variant:normal;font-weight:normal;font-stretch:normal;line-height:125%;letter-spacing:0px;word-spacing:0px;fill:#000000;fill-opacity:1;stroke:none;font-family:Linux Biolinum;-inkscape-font-specification:Linux Biolinum"
       x="180.76685"
       y="-1100.6217"
       id="text3148"
       sodipodi:linespacing="125%"
       transform="matrix(0,1,-1,0,0,0)"><tspan
         sodipodi:role="line"
         id="tspan3150"
         x="180.76685"
         y="-1100.6217">gefährliche Stelle: alles ist nur sicher solang keiner die Keys ändert</tspan></text>
    <text
       xml:space="preserve"
       style="font-size:20px;font-style:normal;font-variant:normal;font-weight:normal;font-stretch:normal;line-height:125%;letter-spacing:0px;word-spacing:0px;fill:#000000;fill-opacity:1;stroke:none;font-family:Linux Biolinum;-inkscape-font-specification:Linux Biolinum"
       x="969.25024"
       y="914.69427"
       id="text3152"
       sodipodi:linespacing="125%"><tspan
         sodipodi:role="line"
         id="tspan3154"
         x="969.25024"
         y="914.69427">privkey</tspan><tspan
         sodipodi:role="line"
         x="969.25024"
         y="939.69427"
         id="tspan3156">User</tspan></text>
    <path
       style="color:#000000;fill:none;stroke:#000000;stroke-width:1px;stroke-linecap:butt;stroke-linejoin:miter;stroke-miterlimit:4;stroke-opacity:1;stroke-dasharray:none;stroke-dashoffset:0;marker:none;visibility:visible;display:inline;overflow:visible;enable-background:accumulate"
       d="m 1038.5714,895.21932 c 1.4317,0.47134 -18.1876,-2.85714 -31.4285,-2.85714 -6.3813,0 -60.00005,-0.0361 -60.00005,0 0,1.88513 2.85715,9.29754 2.85715,12.85714 0,4.65772 -0.97275,11.8844 1.42857,14.28572 6.42453,6.42453 0.45629,24.742 7.14285,31.42857 6.19782,6.19782 51.36148,2.17641 58.57148,-1.42857 6.3506,-3.17533 29.3867,4.08371 31.4285,0 3.2826,-6.56506 -6.6482,-45.90635 -10,-54.28572 z"
       id="path3158"
       inkscape:connector-curvature="0" />
    <text
       xml:space="preserve"
       style="font-size:20px;font-style:normal;font-variant:normal;font-weight:normal;font-stretch:normal;line-height:125%;letter-spacing:0px;word-spacing:0px;fill:#000000;fill-opacity:1;stroke:none;font-family:Linux Biolinum;-inkscape-font-specification:Linux Biolinum"
       x="819.74768"
       y="190.4149"
       id="text3160"
       sodipodi:linespacing="125%"><tspan
         sodipodi:role="line"
         id="tspan3162"
         x="819.74768"
         y="190.4149">Privkeys</tspan><tspan
         sodipodi:role="line"
         x="819.74768"
         y="215.4149"
         id="tspan3164">(verschlüsselt)</tspan><tspan
         sodipodi:role="line"
         x="819.74768"
         y="240.4149"
         id="tspan3219">(aes)</tspan><tspan
         sodipodi:role="line"
         x="819.74768"
         y="265.41492"
         id="tspan3221">(Passwort als </tspan><tspan
         sodipodi:role="line"
         x="819.74768"
         y="290.41492"
         id="tspan3223">Key, PW-Hash</tspan><tspan
         sodipodi:role="line"
         x="819.74768"
         y="315.41492"
         id="tspan3225">als Name?) </tspan></text>
    <path
       style="color:#000000;fill:none;stroke:#000000;stroke-width:1px;stroke-linecap:butt;stroke-linejoin:miter;stroke-miterlimit:4;stroke-opacity:1;stroke-dasharray:none;stroke-dashoffset:0;marker:none;visibility:visible;display:inline;overflow:visible;enable-background:accumulate"
       d="m 950,173.07647 c 1.13381,-0.17307 -10.06754,-0.0338 -15.71429,-2.85715 -6.54678,-3.27338 -24.01877,1.42858 -32.14286,1.42858 -24.16485,0 -45.19963,-2.85715 -67.14285,-2.85715 -3.03108,0 -19.38004,-4.90567 -22.85715,-1.42857 -2.62415,2.62416 -1.42857,13.00224 -1.42857,17.85714 0,19.52327 -11.90826,106.89777 -5.71428,119.28572 4.75733,9.51468 2.79508,22.73302 7.85714,32.85714 6.78349,13.56699 0,36.65645 0,51.42857 0,0.89932 -2.14508,4.99778 -1.42857,5.71429 1.79752,1.79752 10.08127,-0.71429 12.14285,-0.71429 9.35452,0 42.99191,-2.81089 50.71429,-0.71428 11.7971,3.20289 81.55932,9.93462 84.28571,8.57142 C 942.1715,340.98204 965.0105,297.11883 950,173.07647 z"
       id="path3166"
       inkscape:connector-curvature="0"
       sodipodi:nodetypes="cssssssssssscc" />
    <path
       style="color:#000000;fill:none;stroke:#000000;stroke-width:1px;stroke-linecap:butt;stroke-linejoin:miter;stroke-miterlimit:4;stroke-opacity:1;stroke-dasharray:none;stroke-dashoffset:0;marker:none;visibility:visible;display:inline;overflow:visible;enable-background:accumulate"
       d="M 961.16903,922.7755 C 923.54366,925.523 904.33298,904.32524 884.39744,884.3897 859.08889,859.08115 906.6208,436.12813 906.6208,365.17129"
       id="path3168"
       inkscape:connector-curvature="0" />
    <text
       xml:space="preserve"
       style="font-size:32.23673248px;font-style:normal;font-variant:normal;font-weight:normal;font-stretch:normal;line-height:125%;letter-spacing:0px;word-spacing:0px;fill:#000000;fill-opacity:1;stroke:none;font-family:Linux Biolinum;-inkscape-font-specification:Linux Biolinum"
       x="181.22998"
       y="148.39627"
       id="text3170"
       sodipodi:linespacing="125%"><tspan
         sodipodi:role="line"
         id="tspan3172"
         x="181.22998"
         y="148.39627">&lt;anderes Zeug&gt;</tspan></text>
    <a
       id="a3178"
       xlink:href="http://de.wikipedia.org/wiki/RSA-Kryptosystem"
       style="fill:#0000a9"
       transform="translate(-2.1428571,-13.571429)">
      <text
         transform="translate(0,-2.988066e-5)"
         sodipodi:linespacing="125%"
         id="text3174"
         y="596.78339"
         x="1386.9395"
         style="font-size:20px;font-style:normal;font-variant:normal;font-weight:normal;font-stretch:normal;line-height:125%;letter-spacing:0px;word-spacing:0px;fill:#0000a9;fill-opacity:1;stroke:none;font-family:Linux Biolinum;-inkscape-font-specification:Linux Biolinum"
         xml:space="preserve"><tspan
           y="596.78339"
           x="1386.9395"
           id="tspan3176"
           sodipodi:role="line">rsa</tspan></text>
    </a>
    <a
       id="a3194"
       xlink:href="http://de.wikipedia.org/wiki/Advanced_Encryption_Standard"
       style="fill:#0000a9"
       transform="translate(0,-13.571429)">
      <text
         transform="translate(0,-2.988066e-5)"
         sodipodi:linespacing="125%"
         id="text3182"
         y="625.93359"
         x="1385"
         style="font-size:20px;font-style:normal;font-variant:normal;font-weight:normal;font-stretch:normal;line-height:125%;letter-spacing:0px;word-spacing:0px;fill:#0000a9;fill-opacity:1;stroke:none;font-family:Linux Biolinum;-inkscape-font-specification:Linux Biolinum"
         xml:space="preserve"><tspan
           y="625.93359"
           x="1385"
           id="tspan3184"
           sodipodi:role="line">aes</tspan></text>
    </a>
    <flowRoot
       xml:space="preserve"
       id="flowRoot3186"
       style="fill:black;stroke:none;stroke-opacity:1;stroke-width:1px;stroke-linejoin:miter;stroke-linecap:butt;fill-opacity:1;font-family:Linux Biolinum;font-style:normal;font-weight:normal;font-size:20px;line-height:125%;letter-spacing:0px;word-spacing:0px;-inkscape-font-specification:Linux Biolinum;font-stretch:normal;font-variant:normal"><flowRegion
         id="flowRegion3188"><rect
           id="rect3190"
           width="24.285715"
           height="112.14286"
           x="1577.1428"
           y="728.07648" /></flowRegion><flowPara
         id="flowPara3192"></flowPara></flowRoot>    <text
       xml:space="preserve"
       style="font-size:20px;font-style:normal;font-variant:normal;font-weight:normal;font-stretch:normal;line-height:125%;letter-spacing:0px;word-spacing:0px;fill:#000000;fill-opacity:1;stroke:none;font-family:Linux Biolinum;-inkscape-font-specification:Linux Biolinum"
       x="1012.6779"
       y="334.14371"
       id="text3203"
       sodipodi:linespacing="125%"><tspan
         sodipodi:role="line"
         id="tspan3205"
         x="1012.6779"
         y="334.14371">er</tspan><tspan
         sodipodi:role="line"
         x="1012.6779"
         y="359.14371"
         id="tspan3207"></tspan><tspan
         sodipodi:role="line"
         x="1012.6779"
         y="384.14371"
         id="tspan3209">sie</tspan></text>
    <a
       id="a3999"
       xlink:href="http://de.wikipedia.org/wiki/Secure_Hash_Algorithm">
      <text
         transform="translate(0,-2.988066e-5)"
         sodipodi:linespacing="125%"
         id="text3227"
         y="643.07648"
         x="1385.3571"
         style="font-size:20px;font-style:normal;font-variant:normal;font-weight:normal;font-stretch:normal;line-height:125%;letter-spacing:0px;word-spacing:0px;fill:#0000a9;fill-opacity:1;stroke:none;font-family:Linux Biolinum;-inkscape-font-specification:Linux Biolinum"
         xml:space="preserve"><tspan
           y="643.07648"
           x="1385.3571"
           id="tspan3229"
           sodipodi:role="line">sha</tspan></text>
    </a>
  </g>
</svg>
